<?xml version="1.0" encoding="UTF-8" standalone="no"?>
<!DOCTYPE svg PUBLIC "-//W3C//DTD SVG 1.1//EN"
 "http://www.w3.org/Graphics/SVG/1.1/DTD/svg11.dtd">
<!-- Generated by graphviz version 9.0.0 (20230911.1827)
 -->
<!-- Pages: 1 -->
<svg width="612pt" height="207pt"
 viewBox="0.00 0.00 611.87 206.57" xmlns="http://www.w3.org/2000/svg" xmlns:xlink="http://www.w3.org/1999/xlink">
<g id="graph0" class="graph" transform="scale(1 1) rotate(0) translate(4 202.57)">
<polygon fill="white" stroke="none" points="-4,4 -4,-202.57 607.87,-202.57 607.87,4 -4,4"/>
<!-- ini -->
<g id="node1" class="node">
<title>ini</title>
</g>
<!-- E0 -->
<g id="node2" class="node">
<title>E0</title>
<ellipse fill="none" stroke="black" cx="91.72" cy="-81.53" rx="54" ry="54"/>
<text text-anchor="middle" x="91.72" y="-99.86" font-family="Times New Roman,serif" font-size="14.00">BOK</text>
<text text-anchor="middle" x="91.72" y="-84.11" font-family="Times New Roman,serif" font-size="14.00">Bateria OK</text>
<text text-anchor="middle" x="91.72" y="-52.36" font-family="Times New Roman,serif" font-size="14.00">L1=0</text>
</g>
<!-- ini&#45;&gt;E0 -->
<g id="edge1" class="edge">
<title>ini&#45;&gt;E0</title>
<path fill="none" stroke="black" d="M0.79,-81.53C1.71,-81.53 12.35,-81.53 26,-81.53"/>
<polygon fill="black" stroke="black" points="25.96,-85.03 35.96,-81.53 25.96,-78.03 25.96,-85.03"/>
</g>
<!-- E2 -->
<g id="node4" class="node">
<title>E2</title>
<ellipse fill="none" stroke="black" cx="291.76" cy="-136.53" rx="62.04" ry="62.04"/>
<text text-anchor="middle" x="291.76" y="-154.86" font-family="Times New Roman,serif" font-size="14.00">PON</text>
<text text-anchor="middle" x="291.76" y="-139.11" font-family="Times New Roman,serif" font-size="14.00">Parpadeo ON</text>
<text text-anchor="middle" x="291.76" y="-107.36" font-family="Times New Roman,serif" font-size="14.00">L1=1</text>
</g>
<!-- E0&#45;&gt;E2 -->
<g id="edge2" class="edge">
<title>E0&#45;&gt;E2</title>
<path fill="none" stroke="black" d="M140.16,-105.66C147.9,-108.99 155.94,-112.1 163.72,-114.53 181.23,-120.01 200.56,-124.24 218.74,-127.45"/>
<polygon fill="black" stroke="black" points="217.95,-130.87 228.39,-129.08 219.11,-123.97 217.95,-130.87"/>
<text text-anchor="middle" x="187.72" y="-126.98" font-family="Times New Roman,serif" font-size="14.00">S &lt; 600</text>
</g>
<!-- E1 -->
<g id="node3" class="node">
<title>E1</title>
<ellipse fill="none" stroke="black" cx="537.34" cy="-66.53" rx="66.53" ry="66.53"/>
<text text-anchor="middle" x="537.34" y="-84.86" font-family="Times New Roman,serif" font-size="14.00">POFF</text>
<text text-anchor="middle" x="537.34" y="-69.11" font-family="Times New Roman,serif" font-size="14.00">Parpadeo OFF</text>
<text text-anchor="middle" x="537.34" y="-37.36" font-family="Times New Roman,serif" font-size="14.00">L1=0</text>
</g>
<!-- E1&#45;&gt;E0 -->
<g id="edge3" class="edge">
<title>E1&#45;&gt;E0</title>
<path fill="none" stroke="black" d="M472.61,-49.71C410.37,-35.66 313.12,-19.98 229.72,-34.03 203.67,-38.42 175.96,-47.19 152.33,-56.02"/>
<polygon fill="black" stroke="black" points="151.27,-52.67 143.19,-59.52 153.78,-59.21 151.27,-52.67"/>
<text text-anchor="middle" x="291.76" y="-52.73" font-family="Times New Roman,serif" font-size="14.00">S &gt; 650 </text>
<text text-anchor="middle" x="291.76" y="-36.98" font-family="Times New Roman,serif" font-size="14.00">/ i=0</text>
</g>
<!-- E1&#45;&gt;E2 -->
<g id="edge6" class="edge">
<title>E1&#45;&gt;E2</title>
<path fill="none" stroke="black" d="M471.81,-53.99C440.6,-50.7 403.19,-50.98 371.8,-63.28 360.85,-67.58 350.5,-74.19 341.13,-81.71"/>
<polygon fill="black" stroke="black" points="338.91,-79 333.61,-88.17 343.47,-84.31 338.91,-79"/>
<text text-anchor="middle" x="412.3" y="-96.48" font-family="Times New Roman,serif" font-size="14.00">trel &gt; patron[i]</text>
<text text-anchor="middle" x="412.3" y="-80.73" font-family="Times New Roman,serif" font-size="14.00"> / tini = tact</text>
<text text-anchor="middle" x="412.3" y="-64.98" font-family="Times New Roman,serif" font-size="14.00"> / i++</text>
</g>
<!-- E2&#45;&gt;E0 -->
<g id="edge4" class="edge">
<title>E2&#45;&gt;E0</title>
<path fill="none" stroke="black" d="M244.54,-95.69C234.36,-88.84 223.18,-82.76 211.72,-79.03 194.39,-73.4 174.88,-71.94 156.74,-72.45"/>
<polygon fill="black" stroke="black" points="156.68,-68.95 146.87,-72.95 157.04,-75.94 156.68,-68.95"/>
<text text-anchor="middle" x="187.72" y="-96.73" font-family="Times New Roman,serif" font-size="14.00">S &gt; 650 </text>
<text text-anchor="middle" x="187.72" y="-80.98" font-family="Times New Roman,serif" font-size="14.00">/ i=0</text>
</g>
<!-- E2&#45;&gt;E1 -->
<g id="edge5" class="edge">
<title>E2&#45;&gt;E1</title>
<path fill="none" stroke="black" d="M354.07,-133.64C384.42,-130.83 421.22,-125.32 452.8,-114.53 458.89,-112.46 465.03,-109.92 471.07,-107.11"/>
<polygon fill="black" stroke="black" points="472.34,-110.39 479.76,-102.82 469.25,-104.11 472.34,-110.39"/>
<text text-anchor="middle" x="412.3" y="-164.48" font-family="Times New Roman,serif" font-size="14.00">trel &gt; patron[i]</text>
<text text-anchor="middle" x="412.3" y="-148.73" font-family="Times New Roman,serif" font-size="14.00"> / tini = tact</text>
<text text-anchor="middle" x="412.3" y="-132.98" font-family="Times New Roman,serif" font-size="14.00"> / i++</text>
</g>
</g>
</svg>
